{"accessors":[{"bufferView":0,"byteOffset":0,"componentType":5126,"count":24,"max":[0.5,0.5,0.5],"min":[-0.5,-0.5,-0.5],"normalized":false,"type":"VEC3"},{"bufferView":1,"byteOffset":0,"componentType":5126,"count":24,"max":[1,0,1,1],"min":[-1,-0.000015,-1,1],"normalized":false,"type":"VEC4"},{"bufferView":2,"byteOffset":0,"componentType":5126,"count":24,"max":[1,1,1],"min":[-1,-1,-1],"normalized":false,"type":"VEC3"},{"bufferView":3,"byteOffset":0,"componentType":5126,"count":24,"max":[1,1],"min":[0,0],"normalized":false,"type":"VEC2"},{"bufferView":4,"byteOffset":0,"componentType":5125,"count":36,"max":[23],"min":[0],"normalized":false,"type":"SCALAR"}],"asset":{"generator":"Godot Engine v4.0.beta6.official@7f8ecffa56834dce3ccbd736738b613d51133dea","version":"2.0"},"bufferViews":[{"buffer":0,"byteLength":288,"byteOffset":0},{"buffer":0,"byteLength":384,"byteOffset":288},{"buffer":0,"byteLength":288,"byteOffset":672},{"buffer":0,"byteLength":192,"byteOffset":960},{"buffer":0,"byteLength":144,"byteOffset":1152}],"buffers":[{"byteLength":1296,"uri":"box0.bin"}],"extensionsRequired":["KHR_texture_transform"],"extensionsUsed":["KHR_texture_transform"],"images":[{"uri":"textures%2F_albedo.png"}],"materials":[{"pbrMetallicRoughness":{"baseColorFactor":[0.665387034416199,0.539478898048401,0.00212469045072794,1],"baseColorTexture":{"extensions":{"KHR_texture_transform":{"scale":[4,4]}},"index":0},"metallicFactor":0,"roughnessFactor":1}}],"meshes":[{"extras":{"targetNames":[]},"primitives":[{"attributes":{"NORMAL":2,"POSITION":0,"TANGENT":1,"TEXCOORD_0":3},"indices":4,"material":0,"mode":4}]}],"nodes":[{"children":[1,2],"extensions":{},"name":"Box"},{"extensions":{},"mesh":0,"name":"BoxMesh"},{"extensions":{},"name":"CollisionShape3D"}],"samplers":[{"magFilter":9729,"minFilter":9987,"wrapS":10497,"wrapT":10497}],"scene":0,"scenes":[{"nodes":[0]}],"textures":[{"sampler":0,"source":0}]}