{"accessors":[{"bufferView":0,"byteOffset":0,"componentType":5126,"count":1950,"max":[0.5,1,0.5],"min":[-0.5,-1,-0.5],"normalized":false,"type":"VEC3"},{"bufferView":1,"byteOffset":0,"componentType":5126,"count":1950,"max":[1,0,1,1],"min":[-1,-0.000022,-1,1],"normalized":false,"type":"VEC4"},{"bufferView":2,"byteOffset":0,"componentType":5126,"count":1950,"max":[1,1,1],"min":[-1,-1,-1],"normalized":false,"type":"VEC3"},{"bufferView":3,"byteOffset":0,"componentType":5126,"count":1950,"max":[1,1],"min":[0,0],"normalized":false,"type":"VEC2"},{"bufferView":4,"byteOffset":0,"componentType":5125,"count":10368,"max":[1949],"min":[0],"normalized":false,"type":"SCALAR"}],"asset":{"generator":"Godot Engine v4.0.beta6.official@7f8ecffa56834dce3ccbd736738b613d51133dea","version":"2.0"},"bufferViews":[{"buffer":0,"byteLength":23400,"byteOffset":0},{"buffer":0,"byteLength":31200,"byteOffset":23400},{"buffer":0,"byteLength":23400,"byteOffset":54600},{"buffer":0,"byteLength":15600,"byteOffset":78000},{"buffer":0,"byteLength":41472,"byteOffset":93600}],"buffers":[{"byteLength":135072,"uri":"move_boter0.bin"}],"materials":[{"pbrMetallicRoughness":{"baseColorFactor":[0.99999988079071,0.99999988079071,0.99999988079071,1],"metallicFactor":0,"roughnessFactor":1}}],"meshes":[{"extras":{"targetNames":[]},"primitives":[{"attributes":{"NORMAL":2,"POSITION":0,"TANGENT":1,"TEXCOORD_0":3},"indices":4,"material":0,"mode":4}]}],"nodes":[{"children":[1,2],"extensions":{},"name":"MoveBoter"},{"extensions":{},"mesh":0,"name":"MeshInstance3D","translation":[0,1,0]},{"extensions":{},"name":"CollisionShape3D","translation":[0,1,0]}],"scene":0,"scenes":[{"nodes":[0]}]}